<svg xmlns="http://www.w3.org/2000/svg" viewBox="0 0 223.96 104.19"><defs><style>.cls-1{stroke:#000;stroke-miterlimit:22.93;stroke-width:0.57px;}.cls-1,.cls-2{fill-rule:evenodd;}.cls-2,.cls-3{fill:#fff;}.cls-3{font-size:36.69px;stroke:#fff;stroke-miterlimit:5;stroke-width:0.22px;font-family:Centaur;}.cls-4{letter-spacing:0.02em;}</style></defs><title>Asset 1</title><g id="Layer_2" data-name="Layer 2"><g id="_1" data-name="1"><path class="cls-1" d="M137.9.43h0a.54.54,0,0,1,0,.74l-2.86,3a.53.53,0,0,1-.74,0h0a.52.52,0,0,1,0-.74l2.86-3A.52.52,0,0,1,137.9.43Z"/><path class="cls-2" d="M108.9,9.08a16.58,16.58,0,0,0-.73-2.29,4.55,4.55,0,0,0-1.39-1.86,5.31,5.31,0,0,0-2.53-1.11,7.7,7.7,0,0,0-3.1.22,4.58,4.58,0,0,0-2,1.17,9.86,9.86,0,0,0-1.73,2,3.78,3.78,0,0,0-.52,1.94,9.87,9.87,0,0,0,.2,2,10.07,10.07,0,0,0,.42,1.48c.11.3.14.35,0,.34a3.42,3.42,0,0,1-.92-.2A14.34,14.34,0,0,0,95,12.32a6,6,0,0,0-2,0,6.63,6.63,0,0,0-2,.64,4.72,4.72,0,0,0-1.49,1.29A8.8,8.8,0,0,0,88.33,16a5.65,5.65,0,0,0-.43,1.71,6.46,6.46,0,0,0,0,1.75,4.77,4.77,0,0,0,1.82,3.2,7.29,7.29,0,0,0,1.35.89,6.94,6.94,0,0,0,1.28.53,10.27,10.27,0,0,0,1.12.27c.28.06.4.07.32-.05s-.36-.36-.71-.71A6.6,6.6,0,0,1,92,22.33a3,3,0,0,1-.44-1.55A2.24,2.24,0,0,1,92,19.41,1.41,1.41,0,0,1,93,18.93a3.23,3.23,0,0,1,1.94.44,18.13,18.13,0,0,1,3.1,2.22,35.19,35.19,0,0,1,2.52,2.46c.73.77,1.4,1.48,4.35,4.56s8.17,8.52,10.88,11.41,2.93,3.23,3.07,3.61a3.76,3.76,0,0,1,.22,1.13,1.88,1.88,0,0,1-.15.84,1.94,1.94,0,0,1-.51.74,2.32,2.32,0,0,1-.92.48,2,2,0,0,1-1,0,2.81,2.81,0,0,1-.93-.38,3.9,3.9,0,0,1-.73-.57,3.7,3.7,0,0,1-1-1.65c-.07-.21-.11-.33-.16-.3s-.1.19-.11.6a8.24,8.24,0,0,0,.14,1.62,4.18,4.18,0,0,0,.57,1.5,6.35,6.35,0,0,0,1.06,1.23,5.77,5.77,0,0,0,1.19.83,7.91,7.91,0,0,0,1.53.62,5.22,5.22,0,0,0,1.66.15,7.45,7.45,0,0,0,2-.4,5.17,5.17,0,0,0,1.66-1.06,8,8,0,0,0,1.31-1.5,4.52,4.52,0,0,0,.69-1.57,6.62,6.62,0,0,0,.14-1.69,11.59,11.59,0,0,0-.16-1.75,7.34,7.34,0,0,0-.32-1.09c-.07-.23-.07-.32.21-.28s.82.21,1.51.34a12.8,12.8,0,0,0,2.19.22,4.61,4.61,0,0,0,1.68-.25,6.1,6.1,0,0,0,1.54-.83,5.92,5.92,0,0,0,1.3-1.34,6.34,6.34,0,0,0,.88-1.85,7.3,7.3,0,0,0,.27-2.23,5.27,5.27,0,0,0-.44-1.93,4.87,4.87,0,0,0-.88-1.34,6.59,6.59,0,0,0-2.58-1.88,6.51,6.51,0,0,0-1.16-.33,9.83,9.83,0,0,0-1-.12,1.82,1.82,0,0,0-.59,0s.25.1.7.39a8.22,8.22,0,0,1,1.52,1.29,3.43,3.43,0,0,1,.84,1.45,2.09,2.09,0,0,1-.07,1.36,2,2,0,0,1-.87.94,2,2,0,0,1-1.24.14,4.69,4.69,0,0,1-1.59-.49c-.59-.3-1.23-.77-4.5-4s-9.19-9.16-12.57-12.61S106,13.71,105.41,13a10.86,10.86,0,0,1-1.15-1.62A6.77,6.77,0,0,1,103.7,10a3.88,3.88,0,0,1-.17-1.35,1.37,1.37,0,0,1,.46-.93,2.19,2.19,0,0,1,1-.42,3.06,3.06,0,0,1,1.27.06,3.55,3.55,0,0,1,1.27.7,6.82,6.82,0,0,1,.9,1l.33.42.16.23.1.13s0,0,0,0a.78.78,0,0,1,0-.16A4.37,4.37,0,0,0,108.9,9.08Z"/><path class="cls-2" d="M113.63,9.08a16.58,16.58,0,0,1,.73-2.29,4.57,4.57,0,0,1,1.4-1.86,5.31,5.31,0,0,1,2.53-1.11,7.67,7.67,0,0,1,3.09.22,4.68,4.68,0,0,1,2,1.17,10.13,10.13,0,0,1,1.72,2,3.68,3.68,0,0,1,.52,1.94,9.87,9.87,0,0,1-.2,2,10.07,10.07,0,0,1-.42,1.48c-.1.3-.14.35,0,.34a3.35,3.35,0,0,0,.92-.2,14.56,14.56,0,0,1,1.65-.49,6,6,0,0,1,2,0,6.66,6.66,0,0,1,2,.64,4.72,4.72,0,0,1,1.49,1.29A8.38,8.38,0,0,1,134.2,16a5.37,5.37,0,0,1,.43,1.71,6.87,6.87,0,0,1,0,1.75A5.46,5.46,0,0,1,134,21.3a5.23,5.23,0,0,1-1.21,1.38,7.74,7.74,0,0,1-2.62,1.42,10.94,10.94,0,0,1-1.13.27c-.28.06-.39.07-.31-.05a7.33,7.33,0,0,1,.71-.71,6.92,6.92,0,0,0,1.09-1.28,3.05,3.05,0,0,0,.45-1.55,2.31,2.31,0,0,0-.38-1.37,1.39,1.39,0,0,0-1.08-.48,3.23,3.23,0,0,0-1.94.44,18.53,18.53,0,0,0-3.1,2.22A32.94,32.94,0,0,0,122,24.05l-4.36,4.56c-3,3.08-8.17,8.52-10.88,11.41s-2.92,3.23-3.06,3.61a3.79,3.79,0,0,0-.23,1.13,2,2,0,0,0,.15.84,2.06,2.06,0,0,0,.51.74,2.39,2.39,0,0,0,.92.48,2,2,0,0,0,1,0,2.72,2.72,0,0,0,.93-.38,3.6,3.6,0,0,0,.73-.57,4.19,4.19,0,0,0,.67-.84,3.94,3.94,0,0,0,.35-.81c.07-.21.12-.33.17-.3s.1.19.1.6a8.24,8.24,0,0,1-.14,1.62,4.18,4.18,0,0,1-.57,1.5,6,6,0,0,1-1.06,1.23,5.77,5.77,0,0,1-1.19.83,7.66,7.66,0,0,1-1.53.62,5.19,5.19,0,0,1-1.66.15,7.52,7.52,0,0,1-2-.4,5.17,5.17,0,0,1-1.66-1.06,8.75,8.75,0,0,1-1.31-1.5A4.72,4.72,0,0,1,97.1,46,7.1,7.1,0,0,1,97,44.3a11.54,11.54,0,0,1,.17-1.75,7.61,7.61,0,0,1,.31-1.09c.07-.23.07-.32-.2-.28s-.82.21-1.52.34a12.7,12.7,0,0,1-2.19.22,4.55,4.55,0,0,1-1.67-.25A6,6,0,0,1,89,39.32a6.08,6.08,0,0,1-.87-1.85,7,7,0,0,1-.28-2.23,5.71,5.71,0,0,1,.44-1.93A4.87,4.87,0,0,1,89.18,32a6.59,6.59,0,0,1,2.58-1.88,6.75,6.75,0,0,1,1.16-.33,9.67,9.67,0,0,1,1-.12,1.74,1.74,0,0,1,.58,0s-.25.1-.69.39a7.91,7.91,0,0,0-1.52,1.29,3.46,3.46,0,0,0-.85,1.45,2,2,0,0,0,.08,1.36,1.89,1.89,0,0,0,.86.94,2,2,0,0,0,1.24.14,4.69,4.69,0,0,0,1.59-.49c.59-.3,1.23-.77,4.51-4s9.18-9.16,12.57-12.61,4.24-4.43,4.83-5.14a10.16,10.16,0,0,0,1.15-1.62,6.23,6.23,0,0,0,.56-1.35A3.88,3.88,0,0,0,119,8.68a1.37,1.37,0,0,0-.46-.93,2.14,2.14,0,0,0-1-.42,3.06,3.06,0,0,0-1.27.06,3.51,3.51,0,0,0-1.26.7,7,7,0,0,0-.91,1l-.33.42c-.06.09-.11.17-.16.23s-.08.11-.09.13,0,0,0,0a1,1,0,0,1,0-.16A2.2,2.2,0,0,1,113.63,9.08Z"/><text class="cls-3" transform="translate(0.11 93.78)"><tspan class="cls-4">VENTRIGLI</tspan><tspan x="200.81" y="0">A</tspan></text></g></g></svg>