<svg xmlns="http://www.w3.org/2000/svg" viewBox="0 0 309.12 121.59"><defs><style>.cls-1{fill-rule:evenodd;}.cls-2{font-size:50.65px;stroke:#000;stroke-miterlimit:5;stroke-width:0.22px;font-family:Centaur;}.cls-3{letter-spacing:0.02em;}</style></defs><title>Asset 2</title><g id="Layer_2" data-name="Layer 2"><g id="_1" data-name="1"><path class="cls-1" d="M148.35,7.36a20.82,20.82,0,0,0-1-3.16,6.39,6.39,0,0,0-1.93-2.58A7.47,7.47,0,0,0,141.93.09a10.89,10.89,0,0,0-4.27.31A6.39,6.39,0,0,0,134.9,2a13.72,13.72,0,0,0-2.38,2.76,5.13,5.13,0,0,0-.72,2.68,13.8,13.8,0,0,0,.27,2.81,16.48,16.48,0,0,0,.58,2.05c.15.41.2.47,0,.47a5.49,5.49,0,0,1-1.28-.28,19.1,19.1,0,0,0-2.27-.68,8.42,8.42,0,0,0-2.75,0,9.09,9.09,0,0,0-2.82.87,6.65,6.65,0,0,0-2.06,1.79A12,12,0,0,0,120,16.94a7.74,7.74,0,0,0-.6,2.36,9.4,9.4,0,0,0,0,2.42,7.61,7.61,0,0,0,.85,2.51,7.05,7.05,0,0,0,1.67,1.91,10.21,10.21,0,0,0,1.86,1.22,10,10,0,0,0,1.76.73,14.87,14.87,0,0,0,1.56.38c.38.07.54.09.43-.07a12,12,0,0,0-1-1,9.13,9.13,0,0,1-1.51-1.77,4.09,4.09,0,0,1-.61-2.14,3.15,3.15,0,0,1,.51-1.89,2,2,0,0,1,1.49-.67,4.56,4.56,0,0,1,2.68.61,25.84,25.84,0,0,1,4.29,3.08A47,47,0,0,1,136.87,28c1,1.07,1.95,2.06,6,6.31s11.28,11.76,15,15.75,4,4.46,4.23,5a5.46,5.46,0,0,1,.31,1.56,2.6,2.6,0,0,1-.21,1.15,2.63,2.63,0,0,1-.7,1,3.37,3.37,0,0,1-1.27.67,3,3,0,0,1-1.38.07,3.94,3.94,0,0,1-1.28-.53,5.08,5.08,0,0,1-1-.79,6.1,6.1,0,0,1-.92-1.16,6.33,6.33,0,0,1-.48-1.12c-.1-.29-.16-.45-.23-.41s-.14.27-.15.83a11.84,11.84,0,0,0,.2,2.23,5.8,5.8,0,0,0,.79,2.08,8,8,0,0,0,1.46,1.69,8.26,8.26,0,0,0,1.65,1.15,10.85,10.85,0,0,0,2.1.85,7.07,7.07,0,0,0,2.3.21,10.13,10.13,0,0,0,2.81-.55,7,7,0,0,0,2.29-1.46,11,11,0,0,0,1.81-2.08,6.44,6.44,0,0,0,1-2.16,9.37,9.37,0,0,0,.19-2.34,14.83,14.83,0,0,0-.23-2.41,11,11,0,0,0-.43-1.51c-.1-.32-.1-.44.28-.39s1.13.29,2.09.47a18.68,18.68,0,0,0,3,.32,6.4,6.4,0,0,0,2.32-.35A8.2,8.2,0,0,0,180.54,51a8.11,8.11,0,0,0,1.81-1.84,8.58,8.58,0,0,0,1.2-2.55,9.76,9.76,0,0,0,.38-3.08,7.55,7.55,0,0,0-.6-2.67A7.16,7.16,0,0,0,182.11,39a11,11,0,0,0-1.64-1.54,9.16,9.16,0,0,0-1.92-1.05,8.3,8.3,0,0,0-1.6-.46,12.34,12.34,0,0,0-1.38-.17,2.11,2.11,0,0,0-.81,0s.35.13,1,.53a12.16,12.16,0,0,1,2.09,1.78,4.89,4.89,0,0,1,1.18,2,2.89,2.89,0,0,1-.11,1.87,2.7,2.7,0,0,1-1.2,1.31,2.92,2.92,0,0,1-1.71.19,6.38,6.38,0,0,1-2.2-.68c-.81-.41-1.69-1.06-6.21-5.49s-12.68-12.64-17.36-17.42-5.86-6.1-6.67-7.09A14.08,14.08,0,0,1,142,10.54a8.79,8.79,0,0,1-.77-1.87,5.44,5.44,0,0,1-.24-1.86,1.9,1.9,0,0,1,.63-1.29A3,3,0,0,1,143,5a4,4,0,0,1,1.75.08,4.77,4.77,0,0,1,1.74,1,10.46,10.46,0,0,1,1.26,1.35c.27.35.36.47.44.59l.23.32.13.18s0,0,0,0,0-.14,0-.21A5,5,0,0,0,148.35,7.36Z"/><path class="cls-1" d="M154.89,7.36a20.82,20.82,0,0,1,1-3.16,6.39,6.39,0,0,1,1.93-2.58A7.47,7.47,0,0,1,161.31.09a10.89,10.89,0,0,1,4.27.31A6.39,6.39,0,0,1,168.34,2a14,14,0,0,1,2.38,2.76,5.13,5.13,0,0,1,.72,2.68,13.8,13.8,0,0,1-.27,2.81,16.48,16.48,0,0,1-.58,2.05c-.15.41-.2.47,0,.47a5.49,5.49,0,0,0,1.28-.28,19.1,19.1,0,0,1,2.27-.68,8.42,8.42,0,0,1,2.75,0,9.18,9.18,0,0,1,2.82.87,6.65,6.65,0,0,1,2.06,1.79,12,12,0,0,1,1.51,2.47,7.74,7.74,0,0,1,.6,2.36,9.4,9.4,0,0,1,0,2.42,7.61,7.61,0,0,1-.85,2.51,7.05,7.05,0,0,1-1.67,1.91,10.21,10.21,0,0,1-1.86,1.22,10,10,0,0,1-1.76.73,14.87,14.87,0,0,1-1.56.38c-.38.07-.54.09-.43-.07a10.47,10.47,0,0,1,1-1,9.13,9.13,0,0,0,1.51-1.77,4.19,4.19,0,0,0,.61-2.14,3.15,3.15,0,0,0-.51-1.89A2,2,0,0,0,176.8,21a4.56,4.56,0,0,0-2.68.61,25.84,25.84,0,0,0-4.29,3.08A45.05,45.05,0,0,0,166.37,28c-1,1.07-2,2.06-6,6.31s-11.28,11.76-15,15.75-4,4.46-4.23,5a5.46,5.46,0,0,0-.31,1.56,2.6,2.6,0,0,0,.21,1.15,2.63,2.63,0,0,0,.7,1,3.37,3.37,0,0,0,1.27.67,3,3,0,0,0,1.38.07,3.94,3.94,0,0,0,1.28-.53,5.08,5.08,0,0,0,1-.79,6.1,6.1,0,0,0,.92-1.16,6.33,6.33,0,0,0,.48-1.12c.1-.29.16-.45.23-.41s.14.27.15.83a12.74,12.74,0,0,1-.2,2.23,5.8,5.8,0,0,1-.79,2.08A8,8,0,0,1,146,62.36a8.26,8.26,0,0,1-1.65,1.15,10.85,10.85,0,0,1-2.1.85,7.07,7.07,0,0,1-2.3.21,10.13,10.13,0,0,1-2.81-.55,7,7,0,0,1-2.29-1.46A11,11,0,0,1,133,60.48a6.44,6.44,0,0,1-1-2.16,9.37,9.37,0,0,1-.19-2.34,14.83,14.83,0,0,1,.23-2.41,11,11,0,0,1,.43-1.51c.1-.32.1-.44-.28-.39s-1.13.29-2.09.47a18.68,18.68,0,0,1-3,.32,6.4,6.4,0,0,1-2.32-.35A8.2,8.2,0,0,1,122.7,51a8.11,8.11,0,0,1-1.81-1.84,8.58,8.58,0,0,1-1.2-2.55,9.76,9.76,0,0,1-.38-3.08,7.55,7.55,0,0,1,.6-2.67A7.16,7.16,0,0,1,121.13,39a11,11,0,0,1,1.64-1.54,9.16,9.16,0,0,1,1.92-1.05,8.3,8.3,0,0,1,1.6-.46,12.06,12.06,0,0,1,1.38-.17,2.11,2.11,0,0,1,.81,0s-.35.13-1,.53a12.16,12.16,0,0,0-2.09,1.78,4.89,4.89,0,0,0-1.18,2,2.89,2.89,0,0,0,.11,1.87,2.7,2.7,0,0,0,1.2,1.31,2.92,2.92,0,0,0,1.71.19,6.38,6.38,0,0,0,2.2-.68c.81-.41,1.69-1.06,6.21-5.49S148.35,24.64,153,19.86s5.86-6.1,6.67-7.09a14.08,14.08,0,0,0,1.59-2.23,8.79,8.79,0,0,0,.77-1.87,5.44,5.44,0,0,0,.24-1.86,1.9,1.9,0,0,0-.63-1.29A3,3,0,0,0,160.25,5,4,4,0,0,0,158.5,5a4.77,4.77,0,0,0-1.74,1,10.46,10.46,0,0,0-1.26,1.35c-.27.35-.36.47-.44.59l-.23.32-.13.18s0,0,0,0a1.18,1.18,0,0,0,0-.21A5,5,0,0,1,154.89,7.36Z"/><text class="cls-2" transform="translate(0.11 107.26)"><tspan class="cls-3">VENTRIGLI</tspan><tspan x="277.24" y="0">A</tspan></text></g></g></svg>